<svg
	xmlns="http://www.w3.org/2000/svg"
	width="1.2em"
	height="1.2em"
	fill="none"
	viewBox="0 0 100 100"
>
	<g>
		<path
			fill="#fff"
			d="M25.445 66.416c-2.431.032-4.544-.352-6.335-1.152-1.793-.8-3.505-2-5.136-3.6a2.098 2.098 0 0 1-.433-.48 1.485 1.485 0 0 1-.143-.672c0-.384.143-.736.431-1.056.32-.32.672-.48 1.056-.48.385 0 .736.16 1.056.48 1.248 1.344 2.656 2.368 4.225 3.072 1.6.704 3.311 1.056 5.136 1.056 1.535 0 2.896-.24 4.08-.72 1.215-.48 2.175-1.168 2.88-2.064.703-.896 1.056-1.936 1.056-3.12 0-1.472-.4-2.656-1.2-3.552-.8-.928-1.857-1.68-3.169-2.256a32.837 32.837 0 0 0-4.368-1.632 39.477 39.477 0 0 1-3.744-1.296 15.19 15.19 0 0 1-3.168-1.824 7.652 7.652 0 0 1-2.16-2.688c-.511-1.056-.768-2.336-.768-3.84 0-1.696.449-3.2 1.345-4.512.896-1.312 2.16-2.336 3.792-3.072 1.663-.768 3.584-1.152 5.76-1.152 1.887 0 3.695.32 5.423.96 1.76.64 3.153 1.584 4.176 2.832.48.512.72.976.72 1.392 0 .32-.16.64-.48.96-.32.32-.671.48-1.055.48a1.11 1.11 0 0 1-.816-.336c-.544-.672-1.233-1.264-2.065-1.776a9.996 9.996 0 0 0-2.784-1.248 11.135 11.135 0 0 0-3.12-.432c-1.503 0-2.864.24-4.08.72-1.183.448-2.127 1.104-2.831 1.968-.672.864-1.008 1.904-1.008 3.12 0 1.344.384 2.448 1.151 3.312.768.864 1.776 1.584 3.024 2.16a51.817 51.817 0 0 0 3.985 1.536c1.375.384 2.688.832 3.936 1.344 1.28.48 2.4 1.088 3.36 1.824a7.49 7.49 0 0 1 2.303 2.784c.577 1.12.865 2.528.865 4.224 0 1.632-.465 3.104-1.392 4.416-.928 1.312-2.209 2.352-3.84 3.12-1.6.768-3.488 1.168-5.665 1.2Zm1.488 5.328c0 .384-.143.72-.431 1.008-.256.288-.592.432-1.008.432-.416 0-.768-.144-1.056-.432a1.47 1.47 0 0 1-.384-1.008V28.256c0-.416.128-.752.384-1.008.288-.288.655-.432 1.104-.432.415 0 .752.144 1.007.432.256.256.384.592.384 1.008v43.488Zm40.175-30.912c2.112 0 3.792.432 5.04 1.296 1.28.832 2.192 1.984 2.736 3.456.576 1.44.864 3.04.864 4.8v14.112c0 .384-.144.72-.432 1.008a1.382 1.382 0 0 1-1.008.432c-.448 0-.8-.144-1.056-.432a1.47 1.47 0 0 1-.384-1.008V50.528c0-1.28-.208-2.448-.624-3.504a5.354 5.354 0 0 0-2.064-2.544c-.928-.64-2.16-.96-3.696-.96-1.376 0-2.688.32-3.936.96-1.216.64-2.208 1.488-2.976 2.544-.768 1.056-1.152 2.224-1.152 3.504v13.968c0 .384-.144.72-.432 1.008a1.382 1.382 0 0 1-1.008.432c-.448 0-.8-.144-1.056-.432a1.47 1.47 0 0 1-.384-1.008V42.992c0-.384.128-.72.384-1.008.288-.288.64-.432 1.056-.432.416 0 .752.144 1.008.432.288.288.432.624.432 1.008v4.032l-1.104 1.728c.064-1.024.384-2 .96-2.928a10.204 10.204 0 0 1 2.304-2.544 10.546 10.546 0 0 1 3.072-1.776c1.152-.448 2.304-.672 3.456-.672Zm18.966 23.664c0 .384-.144.72-.432 1.008a1.382 1.382 0 0 1-1.008.432c-.416 0-.768-.144-1.056-.432a1.47 1.47 0 0 1-.384-1.008v-22.08c0-.384.128-.72.384-1.008.288-.288.64-.432 1.056-.432.416 0 .752.144 1.008.432.288.288.432.624.432 1.008v22.08Zm-1.44-26.736c-.672 0-1.184-.144-1.536-.432-.32-.32-.48-.768-.48-1.344v-.48c0-.576.176-1.008.528-1.296.384-.32.896-.48 1.536-.48.608 0 1.072.16 1.392.48.352.288.528.72.528 1.296v.48c0 .576-.176 1.024-.528 1.344-.32.288-.8.432-1.44.432Z"
			class="$ ni"
		/>
	</g>
</svg>
