<svg
	xmlns="http://www.w3.org/2000/svg"
	width="1.2em"
	height="1.2em"
	fill="none"
	viewBox="0 0 100 100"
>
	<g>
		<g>
			<path
				fill="#FF5117"
				d="m16.534 77.412-3.274 6.546s-6.333.141-6.694-.095c-.362-.236-4.512-26.01 14.327-46.666 19.925-21.86 44.962-21.702 45.561-20.983.6.715.452 9.454.452 9.454L16.534 77.412Z"
			/>
			<path
				fill="#FF8E00"
				d="M40.507 29.942C28.137 36.9 18.796 47.426 14.47 63.9c-2.058 7.833-1.283 20.048-1.283 20.048h7.305l21.729-31.73 24.685-23.012V22.48s-14.768.917-26.399 7.463Z"
			/>
			<path
				fill="#F9D81E"
				d="M25.377 56.21c-5.965 11.428-4.897 27.737-4.897 27.737l7.13-.005 24.353-32.18 14.95-15.29-.012-7.261s-8.521-.079-21.786 6.31c-10.652 5.123-16.493 14.475-19.738 20.69Z"
			/>
			<path
				fill="#97CC37"
				d="M37.505 50.48C25.139 65.85 27.48 83.942 27.48 83.942h7.933L48.96 59.495l17.952-14.807-.006-8.29s-18.353.343-29.401 14.082Z"
			/>
			<path
				fill="#00C0E9"
				d="M43.985 53.939C31.647 65.72 34.39 83.942 34.39 83.942h6.366l9.488-23.654 16.668-8.677-.006-8.183S56 42.472 43.985 53.938Z"
			/>
			<path
				fill="#8177FA"
				d="M66.658 56.098c.379-.59.254-6.748.254-6.748s-10.319-.186-19.015 9.56c-8.679 9.73-7.43 25.032-7.43 25.032s5.949.18 6.192-.298c.486-.957-1.645-12.22 5.45-20.167 7.351-8.228 14.34-7.064 14.549-7.379Z"
			/>
		</g>
		<path
			fill="#fff"
			d="M70.932 82.337c0-1.408.288-2.528.864-3.36.554-.854 1.322-1.462 2.304-1.824.96-.384 2.026-.576 3.2-.576h9.408c.256 0 .48.096.672.288a.921.921 0 0 1 .288.672c0 .298-.096.533-.288.704a.98.98 0 0 1-.672.256h-9.312c-.854 0-1.632.138-2.336.416a3.57 3.57 0 0 0-1.696 1.376c-.427.618-.64 1.44-.64 2.464 0 .917.213 1.792.64 2.624.426.81.992 1.472 1.696 1.984a3.881 3.881 0 0 0 2.336.768h9.312c.256 0 .48.096.672.288a.921.921 0 0 1 .288.672c0 .298-.096.533-.288.704a.98.98 0 0 1-.672.256H72.372a.98.98 0 0 1-.672-.256.958.958 0 0 1-.288-.704c0-.278.096-.502.288-.672a.921.921 0 0 1 .672-.288h2.688l1.152.736a4.15 4.15 0 0 1-1.952-.64 6.806 6.806 0 0 1-1.696-1.536 7.033 7.033 0 0 1-1.184-2.048 6.318 6.318 0 0 1-.448-2.304Zm.096-22.824c0-.277.096-.501.288-.672a.921.921 0 0 1 .672-.288H86.1c1.728 0 3.178.341 4.352 1.024 1.194.683 2.09 1.6 2.688 2.752.618 1.152.928 2.464.928 3.936a9.78 9.78 0 0 1-.32 2.56c-.192.768-.448 1.397-.768 1.888-.15.256-.331.448-.544.576a.685.685 0 0 1-.672.032c-.299-.107-.502-.267-.608-.48a.9.9 0 0 1 .032-.704c.192-.363.426-.885.704-1.568.277-.683.416-1.461.416-2.336 0-1.173-.246-2.187-.736-3.04-.491-.875-1.206-1.547-2.144-2.016-.918-.47-2.016-.704-3.296-.704h-2.304l.768-.224c.661.32 1.248.779 1.76 1.376a6.605 6.605 0 0 1 1.216 2.016c.277.747.416 1.547.416 2.4 0 1.28-.256 2.347-.768 3.2a4.858 4.858 0 0 1-2.176 1.856c-.918.405-1.995.608-3.232.608h-9.824a.98.98 0 0 1-.672-.256c-.192-.17-.288-.405-.288-.704 0-.277.096-.501.288-.672a.921.921 0 0 1 .672-.288h9.536c1.493 0 2.645-.32 3.456-.96.81-.661 1.216-1.728 1.216-3.2 0-.917-.214-1.76-.64-2.528a5.876 5.876 0 0 0-1.728-1.888c-.726-.49-1.494-.736-2.304-.736h-9.536a.98.98 0 0 1-.672-.256.958.958 0 0 1-.288-.704Zm.16-13.772c0-1.45.362-2.73 1.088-3.84.704-1.13 1.685-2.026 2.944-2.688 1.237-.66 2.666-.992 4.288-.992 1.621 0 3.061.331 4.32.992 1.258.662 2.25 1.558 2.976 2.688.725 1.131 1.088 2.4 1.088 3.808 0 .747-.107 1.462-.32 2.144a7.721 7.721 0 0 1-.928 1.824A7.355 7.355 0 0 1 85.3 51.15a7.1 7.1 0 0 1-1.728 1.024l-.416-.576h9.952c.256 0 .48.096.672.288a.857.857 0 0 1 .288.672.958.958 0 0 1-.288.704.98.98 0 0 1-.672.256H72.244a1.02 1.02 0 0 1-.704-.256c-.192-.17-.288-.405-.288-.704 0-.277.096-.5.288-.672a.958.958 0 0 1 .704-.288H75.7l-.256.448a5.552 5.552 0 0 1-1.76-.928 6.276 6.276 0 0 1-1.344-1.472 6.234 6.234 0 0 1-.864-1.824 7.423 7.423 0 0 1-.288-2.08Zm1.792.16c0 1.152.288 2.166.864 3.04.554.875 1.322 1.568 2.304 2.08.96.491 2.08.736 3.36.736 1.258 0 2.389-.245 3.392-.736 1.002-.512 1.792-1.205 2.368-2.08.554-.874.832-1.888.832-3.04 0-1.13-.278-2.122-.832-2.976-.576-.874-1.366-1.568-2.368-2.08-1.003-.512-2.134-.768-3.392-.768-1.259 0-2.379.256-3.36.768-.982.512-1.75 1.206-2.304 2.08-.576.854-.864 1.846-.864 2.976Zm-1.792-19.15c0-1.323.352-2.453 1.056-3.392.682-.939 1.706-1.579 3.072-1.92l.128.448-.576-.192c-.64-.277-1.238-.736-1.792-1.376a8.02 8.02 0 0 1-1.376-2.24 6.61 6.61 0 0 1-.512-2.528c0-1.344.288-2.421.864-3.232.576-.832 1.354-1.43 2.336-1.792.96-.384 2.048-.576 3.264-.576h9.056c.256 0 .48.096.672.288.192.17.288.395.288.672a.958.958 0 0 1-.288.704.98.98 0 0 1-.672.256h-8.96c-.875 0-1.675.139-2.4.416a3.678 3.678 0 0 0-1.728 1.312c-.427.598-.64 1.397-.64 2.4 0 .875.213 1.717.64 2.528a5.637 5.637 0 0 0 1.728 1.952c.725.49 1.525.736 2.4.736h8.96c.256 0 .48.096.672.288.192.17.288.395.288.672a.958.958 0 0 1-.288.704.98.98 0 0 1-.672.256h-9.056c-.875 0-1.664.128-2.368.384s-1.259.672-1.664 1.248c-.427.576-.64 1.355-.64 2.336 0 .875.213 1.707.64 2.496a5.25 5.25 0 0 0 1.664 1.888c.704.47 1.493.704 2.368.704h9.056c.256 0 .48.096.672.288a.921.921 0 0 1 .288.672c0 .299-.096.533-.288.704a.98.98 0 0 1-.672.256H72.372a.98.98 0 0 1-.672-.256.958.958 0 0 1-.288-.704c0-.277.096-.501.288-.672a.921.921 0 0 1 .672-.288h2.976l1.184.864a5.159 5.159 0 0 1-1.92-.608 6.772 6.772 0 0 1-1.728-1.408 6.83 6.83 0 0 1-1.216-1.952 5.87 5.87 0 0 1-.48-2.336Z"
		/>
	</g>
</svg>
